<svg width="26" height="23" viewBox="0 0 26 23" fill="none" xmlns="http://www.w3.org/2000/svg">
<path d="M25.0479 15.888C25.0479 21.168 23.5439 22.416 15.4159 22.416H10.5519C2.77594 22.416 0.887939 20.784 0.887939 16.336V15.92H6.03994C6.03994 17.936 7.57594 18 10.5519 18H15.0959C18.7759 18 19.7679 17.68 19.7679 15.632C19.7679 13.552 18.6479 13.168 16.5359 13.168H10.0399V8.72001H16.4399C19.0319 8.72001 19.7679 8.43201 19.7679 6.64001C19.7679 4.88001 18.7439 4.62401 14.7119 4.62401H10.8719C7.47994 4.62401 5.91194 5.10401 5.87994 7.05601H0.887939V6.22401C0.887939 2.03201 2.61594 0.208008 10.4879 0.208008H14.9679C22.7119 0.208008 25.0479 1.42401 25.0479 6.16001C25.0479 10 23.8959 10.672 20.9519 10.832C23.5119 11.12 25.0479 11.856 25.0479 15.888Z" fill="#040404"/>
</svg>
