<svg width="25" height="23" viewBox="0 0 25 23" fill="none" xmlns="http://www.w3.org/2000/svg">
<path d="M24.656 7.82394C24.656 12.4959 22.768 14.1279 16.592 14.5759L10.768 14.9919C7.28001 15.2479 5.77601 15.7599 5.77601 17.5199V18.2239H24.528V22.6719H0.432007V17.5519C0.432007 13.0719 3.44001 11.0239 8.65601 10.6399L15.728 10.1279C18.64 9.90394 19.312 9.42394 19.312 7.37594C19.312 5.32794 18.448 4.78394 14.48 4.78394H10.96C6.44801 4.78394 5.90401 5.64794 5.93601 8.65594H0.592007C0.592007 3.98394 1.55201 0.335938 9.84001 0.335938H14.608C22.864 0.335938 24.656 2.15994 24.656 7.82394Z" fill="#040404"/>
</svg>
