<svg width="32" height="32" viewBox="0 0 32 32" fill="none" xmlns="http://www.w3.org/2000/svg">
<rect width="32" height="32" rx="5" fill="white" fill-opacity="0.14"/>
<path d="M8.5 11C9.88071 11 11 9.88071 11 8.5C11 7.11929 9.88071 6 8.5 6C7.11929 6 6 7.11929 6 8.5C6 9.88071 7.11929 11 8.5 11Z" fill="white"/>
<path d="M12.8607 12.3376V25.9989H17.0707V19.2431C17.0707 17.4604 17.4035 15.7341 19.5973 15.7341C21.761 15.7341 21.7878 17.7722 21.7878 19.3556V26H26V18.5082C26 14.8281 25.2136 12 20.9444 12C18.8947 12 17.5208 13.1333 16.959 14.2058H16.902V12.3376H12.8607ZM6 12.3376H10.2167V25.9989H6V12.3376Z" fill="white"/>
</svg>
