<svg width="32" height="32" viewBox="0 0 32 32" fill="none" xmlns="http://www.w3.org/2000/svg">
<rect width="32" height="32" rx="5" fill="white" fill-opacity="0.14"/>
<path d="M27 9.11765C26.1902 9.48824 25.3174 9.73176 24.413 9.84824C25.3384 9.28706 26.0535 8.39765 26.3901 7.32824C25.5172 7.85765 24.5497 8.22824 23.5296 8.44C22.6989 7.52941 21.5316 7 20.2065 7C17.7352 7 15.7161 9.03294 15.7161 11.5424C15.7161 11.9024 15.7581 12.2518 15.8317 12.58C12.088 12.3894 8.7543 10.5788 6.53537 7.83647C6.14627 8.50353 5.92543 9.28706 5.92543 10.1129C5.92543 11.6906 6.71415 13.0882 7.93403 13.8824C7.18738 13.8824 6.49331 13.6706 5.88337 13.3529V13.3847C5.88337 15.5871 7.43977 17.4294 9.50096 17.8424C8.83931 18.0255 8.1444 18.0508 7.47132 17.9165C7.75695 18.8191 8.31634 19.6089 9.07086 20.1749C9.82538 20.7408 10.7371 21.0545 11.6778 21.0718C10.0832 22.3429 8.10651 23.0299 6.07266 23.02C5.71511 23.02 5.35755 22.9988 5 22.9565C6.99809 24.2482 9.37476 25 11.9197 25C20.2065 25 24.76 18.0753 24.76 12.0718C24.76 11.8706 24.76 11.68 24.7495 11.4788C25.6329 10.8435 26.3901 10.0388 27 9.11765Z" fill="white"/>
</svg>
