<svg width="50" height="61" viewBox="0 0 50 61" fill="none" xmlns="http://www.w3.org/2000/svg">
<path d="M40.1348 0.0810337C36.8698 0.590526 34.4565 3.29568 34.4565 6.42542C34.4565 9.39745 36.6117 12.0056 39.6315 12.6727C41.9802 13.1822 44.1999 12.6242 45.9549 11.0594C48.8586 8.48764 48.807 4.22975 45.8517 1.69442C44.3289 0.384303 42.1221 -0.234365 40.1348 0.0810337ZM43.5417 1.67016C45.7097 2.62849 46.9873 4.65433 46.8067 6.86212C46.6389 8.93648 45.1419 10.744 43.0255 11.399C42.3286 11.6174 41.9673 11.6659 40.9736 11.6174C39.9154 11.581 39.6702 11.5203 38.8184 11.12C34.3404 9.04566 34.8179 2.91963 39.5798 1.43968C40.7413 1.07576 42.419 1.1728 43.5417 1.67016Z" fill="white"/>
<path d="M40.6509 2.3009C40.6509 2.71334 40.5992 2.79826 40.3282 2.85891C40.1476 2.8953 39.8636 3.10152 39.683 3.29562C39.3862 3.62315 39.3604 3.75659 39.3604 4.83622C39.3604 6.12208 39.4765 6.41322 40.1347 6.72862C40.3411 6.82566 40.8315 6.91058 41.2316 6.91058H41.9414V7.95382V8.98494L41.2703 8.94855C40.6767 8.91215 40.5863 8.87576 40.5476 8.63315C40.5089 8.40266 40.4315 8.36627 39.9282 8.36627H39.3604V8.82724C39.3604 9.39738 39.6443 9.7977 40.2121 10.0161C40.5863 10.1616 40.6509 10.2465 40.6509 10.6105V11.035H41.2961H41.9414V10.6105C41.9414 10.2708 42.0059 10.1616 42.2382 10.0767C42.393 10.0161 42.664 9.82196 42.8447 9.64C43.1544 9.33673 43.1673 9.23968 43.1673 7.92956V6.54666L42.7544 6.1706C42.393 5.83094 42.2382 5.77029 41.4639 5.70964L40.5863 5.63685V4.84835V4.05985L41.1542 4.02346C41.4639 3.9992 41.7865 4.04772 41.851 4.10838C42.0575 4.30247 42.9738 4.27821 43.0512 4.07198C43.1673 3.80511 42.7544 3.17431 42.3285 2.96809C41.993 2.81039 41.9414 2.71334 41.9414 2.3009V1.81567H41.2961H40.6509V2.3009Z" fill="white"/>
<path d="M40.7671 14.0313C40.0831 14.7349 32.5207 24.8762 32.5207 25.0824C32.5207 25.604 32.895 25.7132 34.6888 25.7132H36.3922V42.575V59.4367H33.1015H29.8107V45.4863V31.536H31.6045C33.4757 31.536 33.8112 31.4511 33.8112 30.9658C33.8112 30.8688 31.9142 28.2728 29.6042 25.2159C25.7456 20.1088 25.3713 19.6479 25.0358 19.6479C24.7003 19.6479 24.326 20.1088 20.4674 25.2159C18.1574 28.2728 16.2604 30.8688 16.2604 30.9658C16.2604 31.4511 16.5959 31.536 18.4671 31.536H20.2609V45.4863V59.4367H16.9701H13.6794V48.3371V37.2374H15.4603C17.3186 37.2374 17.5509 37.1768 17.5509 36.6916C17.5509 36.5581 15.6667 33.9621 13.3696 30.9294C9.12387 25.3129 8.9432 25.1067 8.4399 25.4342C8.20761 25.5919 0 36.5217 0 36.6794C0 36.7643 0.10324 36.922 0.232291 37.0312C0.425867 37.201 0.774303 37.2374 2.23257 37.2374H4.00057V48.7495C4.00057 59.0607 4.02638 60.2859 4.20705 60.4557C4.38772 60.6255 6.45253 60.6498 25.0358 60.6498C43.6191 60.6498 45.6839 60.6255 45.8646 60.4557C46.0452 60.2859 46.071 58.539 46.071 42.9874V25.7132H47.7358C48.652 25.7132 49.5038 25.6768 49.607 25.6404C49.9555 25.5191 50.0974 25.1431 49.9296 24.8277C49.6328 24.3303 41.9156 14.1284 41.6575 13.91C41.2962 13.631 41.1413 13.6431 40.7671 14.0313ZM44.8321 20.0724L48.1358 24.4395L46.6776 24.4759C45.3871 24.5001 45.2064 24.5365 45.0128 24.7549C44.7934 24.9975 44.7805 26.0044 44.7805 42.2232V59.4367H41.2316H37.6828V42.0897C37.6828 25.0703 37.6828 24.7549 37.4376 24.6215C37.2956 24.5608 36.56 24.5001 35.8115 24.5001C35.0372 24.5001 34.4565 24.4516 34.4823 24.391C34.5081 24.3303 36.0309 22.2802 37.8763 19.8419C40.509 16.3483 41.2574 15.4385 41.3736 15.5598C41.4639 15.6326 43.0254 17.6705 44.8321 20.0724ZM28.5202 25.8345L31.8626 30.2623L30.4172 30.3229C29.6171 30.3593 28.8944 30.4321 28.817 30.4806C28.6879 30.5534 28.6492 33.5982 28.6492 45.0132V59.4367H25.0358H21.4224V45.0132C21.4224 33.5982 21.3837 30.5534 21.2675 30.4806C21.1772 30.4321 20.4545 30.3593 19.6544 30.3229L18.209 30.2623L21.5772 25.7981C23.4356 23.3477 24.9971 21.3583 25.0616 21.3704C25.1261 21.3947 26.6747 23.3963 28.5202 25.8345ZM12.4276 31.7179L15.6409 35.9637L14.2214 36.0244C13.3051 36.0608 12.7373 36.1457 12.5953 36.2548C12.4018 36.4004 12.3888 37.383 12.3888 47.9246V59.4367H8.83996H5.29107V47.9974C5.29107 38.3171 5.26526 36.5217 5.1104 36.3155C4.95554 36.1214 4.72325 36.0729 3.44565 36.0244L1.97447 35.9637L5.39431 31.4389C8.74962 26.9991 8.81415 26.9263 9.02063 27.1932C9.12387 27.3509 10.6596 29.3767 12.4276 31.7179Z" fill="white"/>
</svg>
