<svg width="45" height="45" viewBox="0 0 45 45" fill="none" xmlns="http://www.w3.org/2000/svg">
<path d="M2.07688 0.147735C1.19282 0.464231 0.736839 0.864506 0.271548 1.74883C-0.0448496 2.3539 -0.0448496 3.55472 0.280854 4.21564C0.569334 4.8114 1.12768 5.36992 1.72325 5.65849C2.40258 5.99361 3.47275 5.9843 4.1986 5.64918C4.85001 5.342 5.36183 4.83933 5.65031 4.19703L5.87365 3.70366H7.78134H9.67972V7.19443V10.6945L9.91237 10.9179C10.052 11.0669 10.2474 11.1506 10.4242 11.1506C10.601 11.1506 10.7964 11.0669 10.936 10.9179L11.1687 10.6945V6.68245V2.6704L10.936 2.44699L10.7127 2.21427H8.29316H5.87365L5.65031 1.72091C5.03612 0.380452 3.41691 -0.32701 2.07688 0.147735ZM3.56581 1.59989C4.53361 2.00017 4.75695 3.22892 4.00318 3.98292C3.389 4.5973 2.55147 4.60661 1.94659 3.99223C0.792674 2.84726 2.06757 0.966901 3.56581 1.59989Z" fill="white"/>
<path d="M21.3492 0.147629C20.7351 0.361729 20.1953 0.799238 19.8417 1.35776C18.8739 2.86577 19.4695 4.88576 21.098 5.63046L21.5912 5.85387V7.52944C21.5912 9.18639 21.5912 9.20501 21.8238 9.42842C21.9634 9.57735 22.1588 9.66113 22.3357 9.66113C22.5125 9.66113 22.7079 9.57735 22.8475 9.42842C23.0801 9.20501 23.0801 9.18639 23.0801 7.52944V5.85387L23.5733 5.63046C24.2154 5.34189 24.7179 4.82991 25.025 4.1783C25.36 3.45222 25.3694 2.38172 25.0343 1.70218C24.7366 1.10643 24.1224 0.482742 23.564 0.240716C22.9498 -0.0385456 21.9634 -0.0757809 21.3492 0.147629ZM22.9219 1.59979C23.8804 2.00006 24.1131 3.24743 23.3686 3.99213C22.3264 5.04401 20.6141 4.10383 20.8839 2.63305C21.0515 1.75804 22.0751 1.23675 22.9219 1.59979Z" fill="white"/>
<path d="M40.9939 0.0639658C40.147 0.287375 39.384 0.920367 39.021 1.72092L38.7977 2.21428H36.3782H33.9587L33.7353 2.447L33.5027 2.67041V6.68246V10.6945L33.7353 10.9179C34.0331 11.2251 34.4612 11.2251 34.759 10.9179L34.9916 10.6945V7.19444V3.70367H36.89H38.7977L39.021 4.19703C39.5049 5.26754 40.4914 5.89122 41.6918 5.89122C42.8736 5.89122 43.8042 5.31408 44.3626 4.23427C44.5766 3.82469 44.6138 3.6292 44.6138 2.95898C44.6231 2.30737 44.5766 2.08396 44.3905 1.7023C44.0927 1.10654 43.5344 0.548019 42.9481 0.268758C42.4456 0.0360394 41.4871 -0.0663557 40.9939 0.0639658ZM42.2781 1.5999C43.2366 2.00018 43.4692 3.24755 42.7247 3.99224C41.6825 5.04413 39.9702 4.10395 40.2401 2.63317C40.4076 1.75815 41.4312 1.23686 42.2781 1.5999Z" fill="white"/>
<path d="M20.3815 11.2529C20.1117 11.3646 19.6743 11.7649 19.5161 12.0348C19.4603 12.1372 19.3858 12.6585 19.3579 13.1891L19.3114 14.1572L18.9484 14.2782C18.753 14.3527 18.2412 14.5575 17.8131 14.7437L17.0314 15.0788L16.38 14.4644C15.3936 13.5335 14.6585 13.4404 13.793 14.12C13.0951 14.6785 11.7271 16.1493 11.5782 16.503C11.2805 17.2198 11.4852 17.8342 12.3041 18.6626L12.8717 19.2305L12.4995 20.1055C12.2855 20.5802 12.0808 21.0922 12.0342 21.2505L11.9412 21.5297L11.0199 21.5763C9.80083 21.6414 9.40068 21.8555 9.07498 22.6281C8.90747 23.0377 8.87025 26.0538 9.03775 26.482C9.14012 26.7705 9.53096 27.208 9.81944 27.3756C9.92181 27.4314 10.4429 27.5059 10.9734 27.5338L11.9412 27.5804L12.0621 27.9434C12.1366 28.1389 12.3413 28.6509 12.5274 29.0791L12.8624 29.861L12.2576 30.5126C11.4759 31.3318 11.2898 31.9182 11.5782 32.5885C11.7457 32.9701 14.0164 35.2135 14.3607 35.3532C15.0307 35.5952 15.5984 35.3904 16.4266 34.5991L17.0221 34.0313L18.0272 34.4502C18.5762 34.6736 19.1066 34.8877 19.1997 34.9156C19.33 34.9622 19.3579 35.1018 19.3579 35.8186C19.3579 36.7588 19.4696 37.1311 19.879 37.5128C20.3071 37.9131 20.5677 37.9596 22.3358 37.9596C24.1039 37.9596 24.3644 37.9131 24.7832 37.5128C25.202 37.1125 25.2578 36.9449 25.3136 35.921L25.3602 34.9529L25.8627 34.7853C26.1418 34.6829 26.6537 34.4781 26.998 34.3199L27.6401 34.022L28.2822 34.6364C29.2314 35.53 29.92 35.6603 30.7389 35.1018C31.2507 34.7481 32.9444 32.9422 33.0933 32.5885C33.3911 31.8903 33.177 31.2759 32.3674 30.4475L31.7998 29.8796L32.1441 29.0884C32.3302 28.6509 32.5349 28.1389 32.6094 27.9434L32.7304 27.5804L33.6516 27.5338C34.8707 27.4687 35.2708 27.2546 35.5965 26.482C35.764 26.0724 35.8013 23.0563 35.6338 22.6281C35.5314 22.3396 35.1406 21.9021 34.8521 21.7345C34.7497 21.6787 34.2286 21.6042 33.6982 21.5763L32.7304 21.5297L32.6094 21.1667C32.5349 20.9712 32.3302 20.4592 32.1441 20.031L31.8091 19.2491L32.4233 18.5975C33.3538 17.6107 33.4469 16.8754 32.7676 16.0097C32.2092 15.3115 30.7389 13.9431 30.3853 13.7942C29.6594 13.4963 29.0546 13.7011 28.2263 14.5203L27.6494 15.0881L27.0073 14.7995C26.6537 14.632 26.1418 14.4272 25.8627 14.3248L25.3602 14.1572L25.3136 13.2357C25.2485 12.0162 25.0344 11.6159 24.2621 11.2901C24.0015 11.1784 23.5548 11.1505 22.2706 11.1598C21.3587 11.1598 20.5118 11.2064 20.3815 11.2529ZM23.8247 13.6173C23.8991 14.995 24.1411 15.3394 25.295 15.7211C25.6393 15.8328 26.1977 16.0655 26.542 16.2331C27.2027 16.5682 27.7704 16.6426 28.2543 16.4565C28.3845 16.4006 28.794 16.0841 29.1476 15.7397L29.7897 15.116L30.7761 16.112L31.7719 17.0988L31.1484 17.7411C30.8041 18.0948 30.4877 18.5044 30.4318 18.6347C30.2457 19.1188 30.3201 19.6866 30.6552 20.3475C30.8227 20.6919 31.0553 21.2505 31.167 21.5949C31.5578 22.7678 31.9952 23.0563 33.3911 23.0657H34.2565L34.2286 24.5271L34.2007 25.9979L33.2701 26.0444C31.8649 26.1189 31.6137 26.3051 31.1391 27.599C30.9716 28.0458 30.7203 28.6323 30.5807 28.9022C30.3201 29.4235 30.2643 30.0286 30.4318 30.4754C30.4877 30.6057 30.8041 31.0153 31.1484 31.369L31.7719 32.0113L30.7761 32.9981L29.7897 33.9941L29.1476 33.3704C28.794 33.026 28.3845 32.7095 28.2543 32.6536C27.7704 32.4675 27.2027 32.5419 26.542 32.877C26.1977 33.0446 25.6393 33.2773 25.295 33.389C24.1225 33.78 23.834 34.2175 23.8247 35.6045V36.4702H22.3358H20.8468V35.6045C20.8375 34.2733 20.5397 33.7707 19.5161 33.4356C19.2462 33.3518 18.6693 33.1191 18.2319 32.9236C16.9384 32.3464 16.5196 32.4116 15.5239 33.3704L14.8818 33.9941L13.8861 32.9981L12.8904 32.002L13.4673 31.4249C13.7744 31.0991 14.1001 30.7081 14.1839 30.5406C14.4258 30.0565 14.37 29.47 14.0164 28.7626C13.8489 28.4182 13.6162 27.8596 13.5045 27.5152C13.1137 26.3423 12.6763 26.0538 11.2805 26.0444H10.415L10.4429 24.5737L10.4708 23.1122L11.4014 23.0657C12.7787 22.9912 13.123 22.7492 13.5045 21.5949C13.6162 21.2505 13.8489 20.6919 14.0164 20.3475C14.3514 19.6866 14.4258 19.1188 14.2397 18.6347C14.1839 18.5044 13.8675 18.0948 13.5232 17.7411L12.8997 17.0988L13.8954 16.112L14.8818 15.116L15.5239 15.7397C15.8775 16.0841 16.287 16.4006 16.4173 16.4565C16.9012 16.6426 17.4688 16.5682 18.1295 16.2331C18.4738 16.0655 19.0322 15.8328 19.3765 15.7211C20.549 15.3301 20.8375 14.8926 20.8468 13.4963V12.6306L22.3172 12.6585L23.7782 12.6864L23.8247 13.6173Z" fill="white"/>
<path d="M20.9863 17.2385C18.9576 17.6388 17.2174 18.8023 16.1007 20.5245C15.2725 21.7904 14.9375 22.9354 14.9375 24.5551C14.9375 26.1749 15.2725 27.3198 16.0914 28.5765C18.3527 32.03 22.9498 33.0261 26.365 30.792C30.3386 28.2042 30.9249 22.6468 27.5841 19.305C26.6256 18.3369 25.5182 17.7132 24.1037 17.3316C23.3779 17.1268 21.7773 17.0895 20.9863 17.2385ZM23.5826 18.7372C26.9978 19.4633 29.1103 23.1495 27.9843 26.4076C27.6492 27.3571 27.2305 28.0273 26.5232 28.7441C24.1596 31.0992 20.5024 31.0992 18.1387 28.7347C15.8029 26.4169 15.8029 22.7027 18.1387 20.3569C19.5904 18.9141 21.5912 18.3183 23.5826 18.7372Z" fill="white"/>
<path d="M4.51494 12.7238C3.67742 12.9286 2.91434 13.5616 2.51419 14.3621L2.28155 14.8275L2.25363 27.1337L2.23502 39.4491H1.34166C0.532052 39.4491 0.438994 39.4677 0.234266 39.6818C-0.0449083 39.9518 -0.0728257 40.4358 0.141208 41.2643C0.578581 42.9212 1.97445 44.2524 3.62158 44.5689C4.30091 44.6992 40.3516 44.6992 41.0496 44.5689C42.7525 44.2524 44.2508 42.7537 44.5765 41.0409C44.7254 40.2403 44.6974 39.9331 44.4369 39.6818C44.2322 39.4677 44.1391 39.4491 43.3295 39.4491H42.4361L42.4175 27.143L42.3896 14.8275L42.0732 14.2411C41.7289 13.5988 41.3381 13.2264 40.668 12.9006C40.2586 12.6959 40.1562 12.6865 37.1132 12.6586L33.9678 12.6307L33.7352 12.8634C33.456 13.1427 33.4281 13.5523 33.6794 13.8594L33.8562 14.0829L36.9271 14.1294C39.8491 14.1759 40.0166 14.1852 40.2586 14.3714C40.3982 14.4738 40.6029 14.6786 40.7053 14.8182C40.9007 15.0696 40.9007 15.1161 40.9286 27.264L40.9472 39.4491H40.2027H39.4583V27.7667V16.0749L39.2256 15.8515L39.0023 15.6188H36.4804H33.9585L33.7352 15.8515C33.4281 16.1494 33.4281 16.5776 33.7352 16.8755C33.9585 17.1082 33.9585 17.1082 35.9686 17.1082H37.9693V28.2786V39.4491H22.3356H6.70181V28.2786V17.1082H8.70256C10.7126 17.1082 10.7126 17.1082 10.936 16.8755C11.0848 16.7358 11.1686 16.5404 11.1686 16.3635C11.1686 16.1866 11.0848 15.9911 10.936 15.8515L10.7126 15.6188H8.19074H5.66886L5.44552 15.8515L5.21288 16.0749V27.7667V39.4491H4.46841H3.72395L3.74256 27.264C3.77048 15.1161 3.77048 15.0696 3.9659 14.8182C4.06826 14.6786 4.27299 14.4738 4.41258 14.3714C4.65453 14.1852 4.82203 14.1759 7.74406 14.1294L10.815 14.0829L10.9918 13.8594C11.2337 13.5616 11.2151 13.1427 10.936 12.8727L10.7126 12.64L7.75336 12.6493C6.12485 12.6586 4.67314 12.6865 4.51494 12.7238ZM43.0875 40.9943C43.0875 41.0223 42.9573 41.3015 42.7898 41.6087C42.4641 42.2231 42.1663 42.5024 41.4683 42.8747L40.9937 43.126H22.3356H3.67742L3.25866 42.9026C2.56072 42.5303 2.18849 42.1859 1.8814 41.6087C1.71389 41.3015 1.58361 41.0223 1.58361 40.9943C1.58361 40.9664 10.9173 40.9385 22.3356 40.9385C33.7538 40.9385 43.0875 40.9664 43.0875 40.9943Z" fill="white"/>
</svg>
