<svg width="50" height="50" viewBox="0 0 50 50" fill="none" xmlns="http://www.w3.org/2000/svg">
<path d="M35.1067 0.14562C34.7218 0.312052 34.3785 0.686523 34.2329 1.0714C34.0665 1.50828 34.0873 3.57828 34.2641 3.99436C34.3473 4.1816 34.5866 4.47285 34.805 4.63928C35.1899 4.94094 35.2107 4.94094 36.9478 4.99295L38.6954 5.04496L33.4944 10.246L28.2934 15.447L25.36 12.524C22.177 9.36179 21.9065 9.16416 20.6167 8.93531C20.1486 8.8521 19.7949 8.8521 19.3268 8.93531C17.9122 9.18496 18.1618 8.95612 10.017 17.1009C3.09972 23.9974 2.4964 24.6319 2.4964 24.944C2.4964 25.4017 2.89168 25.797 3.34936 25.797C3.66142 25.797 4.30635 25.1728 11.1301 18.3595C16.3103 13.1793 18.6819 10.8805 18.9524 10.7661C19.4517 10.5684 20.4919 10.5684 20.9912 10.7765C21.2408 10.8805 22.4786 12.0351 24.6631 14.2091C27.69 17.2257 27.9709 17.4754 28.2934 17.4754C28.6366 17.4754 29.0735 17.0593 35.1275 10.9949C41.067 5.06577 41.6079 4.49366 41.6079 4.1816C41.6079 3.95275 41.5247 3.75511 41.3479 3.58868L41.0982 3.32863H38.4353H35.7828V2.49647V1.66431H40.5157H45.259L45.5087 1.92436L45.7687 2.17401V6.91732V11.6502H44.9366H44.1044V8.99772V6.33481L43.8444 6.08516C43.6779 5.90833 43.4803 5.82511 43.2514 5.82511C42.9394 5.82511 42.3465 6.38682 36.3029 12.4304C31.7156 17.0073 29.5832 19.0773 29.3128 19.1917C28.8135 19.3893 27.7733 19.3893 27.274 19.1813C27.0243 19.0773 25.7865 17.9226 23.6021 15.7486C20.5751 12.732 20.2942 12.4824 19.9718 12.4824C19.6389 12.4824 19.1396 12.9505 12.3471 19.7326C8.35273 23.727 5.06569 27.0972 5.03449 27.2324C4.88886 27.7941 5.49218 28.4079 6.05388 28.2414C6.18911 28.1998 9.37212 25.1 13.1272 21.3449L19.9718 14.5108L22.9051 17.4337C26.0881 20.596 26.3586 20.7936 27.6484 21.0224C28.1165 21.1057 28.4702 21.1057 28.9383 21.0224C30.3322 20.7832 30.2489 20.8456 36.5942 14.5212L42.4401 8.68566V10.3292C42.4401 12.2015 42.5129 12.5032 43.1266 12.9609C43.5115 13.2625 43.5323 13.2625 44.947 13.2625C46.5073 13.2625 46.6737 13.2105 47.1626 12.5448C47.3706 12.264 47.381 12.1183 47.4122 7.25019C47.433 3.60949 47.4122 2.1116 47.3186 1.78914C47.2458 1.52909 47.0066 1.13381 46.7361 0.832151C45.9768 -0.0104103 46.06 -7.62939e-06 40.3701 -7.62939e-06C36.4797 0.0103931 35.3563 0.0415993 35.1067 0.14562Z" fill="white"/>
<path d="M40.131 23.4565C37.5305 23.8102 35.6581 24.7047 35.1484 25.8386C34.9612 26.2442 34.9508 26.7851 34.9508 36.615C34.9508 48.2965 34.8988 47.4331 35.7725 48.1821C38.4667 50.4809 46.4034 50.5017 49.0871 48.2029C49.9921 47.4227 49.9297 48.3173 49.9297 36.615C49.9297 24.9128 49.9921 25.8073 49.0871 25.0272C47.4956 23.6645 43.6157 22.9884 40.131 23.4565ZM44.3646 25.0792C46.0393 25.2872 47.9117 25.953 48.1717 26.4419C48.4006 26.8788 47.6828 27.378 46.1849 27.8045C43.3972 28.6159 39.3196 28.3662 37.312 27.274C36.4383 26.8059 36.4383 26.4523 37.312 25.9738C37.9466 25.6409 39.4444 25.204 40.4118 25.0792C41.4728 24.9544 43.2932 24.944 44.3646 25.0792ZM37.8113 29.24C39.3924 29.7809 40.2246 29.9057 42.4402 29.9057C44.0109 29.9057 44.6663 29.8641 45.3528 29.7185C46.1225 29.5521 47.5372 29.1152 48.0885 28.8759C48.2549 28.7927 48.2654 28.8967 48.2654 30.2594C48.2654 31.9029 48.2549 31.9341 47.4436 32.3398C45.0303 33.5776 39.8501 33.5776 37.4369 32.3398C36.6255 31.9341 36.6151 31.9029 36.6151 30.2594C36.6151 28.8967 36.6255 28.7927 36.8023 28.8759C36.896 28.9175 37.3536 29.084 37.8113 29.24ZM37.8113 34.233C39.3924 34.7739 40.2246 34.8987 42.4402 34.8987C44.0109 34.8987 44.6663 34.8571 45.3528 34.7115C46.1225 34.545 47.5372 34.1081 48.0885 33.8689C48.2549 33.7857 48.2654 33.8897 48.2654 35.2524C48.2654 36.8959 48.2549 36.9271 47.4436 37.3328C45.0303 38.5706 39.8501 38.5706 37.4369 37.3328C36.6255 36.9271 36.6151 36.8959 36.6151 35.2524C36.6151 33.8897 36.6255 33.7857 36.8023 33.8689C36.896 33.9105 37.3536 34.0769 37.8113 34.233ZM37.8113 39.2259C39.1532 39.6836 40.0998 39.8501 41.8681 39.9125C43.1372 39.9541 43.8133 39.9333 44.7079 39.798C45.6961 39.6524 47.3396 39.1947 48.0885 38.8619C48.2549 38.7786 48.2654 38.8827 48.2654 40.2453C48.2654 41.8888 48.2549 41.9201 47.4436 42.3257C45.0303 43.5636 39.8501 43.5636 37.4369 42.3257C36.6255 41.9201 36.6151 41.8888 36.6151 40.2453C36.6151 38.8827 36.6255 38.7786 36.8023 38.8619C36.896 38.9035 37.3536 39.0699 37.8113 39.2259ZM37.8113 44.2189C39.1532 44.6766 40.0998 44.843 41.8681 44.9054C43.1372 44.947 43.8133 44.9262 44.7079 44.791C45.6961 44.6454 47.3396 44.1877 48.0885 43.8548C48.2549 43.7716 48.2654 43.8756 48.2654 45.2383C48.2654 46.8818 48.2549 46.913 47.4436 47.3187C45.0303 48.5565 39.8501 48.5565 37.4369 47.3187C36.6255 46.913 36.6151 46.8818 36.6151 45.2383C36.6151 43.8756 36.6255 43.7716 36.8023 43.8548C36.896 43.8964 37.3536 44.0629 37.8113 44.2189Z" fill="white"/>
<path d="M22.6555 28.4495C20.055 28.8031 18.1826 29.6977 17.6729 30.8315C17.4857 31.2372 17.4753 31.7053 17.4753 39.1115C17.4753 47.974 17.4337 47.4435 18.2971 48.1821C20.9912 50.4809 28.9279 50.5017 31.6116 48.2029C32.5062 47.4331 32.4542 47.9948 32.4542 39.1115C32.4542 30.2282 32.5062 30.7899 31.6116 30.0202C30.0201 28.6575 26.1402 27.9814 22.6555 28.4495ZM26.8891 30.0722C28.5638 30.2802 30.4362 30.9459 30.6962 31.4348C30.9251 31.8717 30.2073 32.371 28.7095 32.7975C25.9217 33.6089 21.8441 33.3592 19.8366 32.267C18.9628 31.7989 18.9628 31.4452 19.8366 30.9667C20.4711 30.6339 21.969 30.197 22.9363 30.0722C23.9974 29.9473 25.8177 29.9369 26.8891 30.0722ZM20.3358 34.233C21.917 34.7739 22.7491 34.8987 24.9647 34.8987C26.5354 34.8987 27.1908 34.8571 27.8773 34.7115C28.647 34.545 30.0617 34.1081 30.613 33.8689C30.7795 33.7857 30.7899 33.8897 30.7899 35.2524C30.7899 36.8959 30.7795 36.9271 29.9681 37.3328C27.5548 38.5706 22.3746 38.5706 19.9614 37.3328C19.15 36.9271 19.1396 36.8959 19.1396 35.2524C19.1396 33.8897 19.15 33.7857 19.3269 33.8689C19.4205 33.9105 19.8782 34.0769 20.3358 34.233ZM20.3358 39.2259C21.6777 39.6836 22.6243 39.8501 24.3926 39.9125C25.6617 39.9541 26.3378 39.9333 27.2324 39.798C28.2206 39.6524 29.8641 39.1947 30.613 38.8619C30.7795 38.7786 30.7899 38.8827 30.7899 40.2453C30.7899 41.8888 30.7795 41.9201 29.9681 42.3257C27.5548 43.5636 22.3746 43.5636 19.9614 42.3257C19.15 41.9201 19.1396 41.8888 19.1396 40.2453C19.1396 38.8827 19.15 38.7786 19.3269 38.8619C19.4205 38.9035 19.8782 39.0699 20.3358 39.2259ZM20.3358 44.2189C21.6777 44.6766 22.6243 44.843 24.3926 44.9054C25.6617 44.947 26.3378 44.9262 27.2324 44.791C28.2206 44.6454 29.8641 44.1877 30.613 43.8548C30.7795 43.7716 30.7899 43.8756 30.7899 45.2383C30.7899 46.8818 30.7795 46.913 29.9681 47.3187C27.5548 48.5565 22.3746 48.5565 19.9614 47.3187C19.15 46.913 19.1396 46.8818 19.1396 45.2383C19.1396 43.8756 19.15 43.7716 19.3269 43.8548C19.4205 43.8964 19.8782 44.0629 20.3358 44.2189Z" fill="white"/>
<path d="M5.18024 33.4424C2.57974 33.7961 0.707382 34.6907 0.197684 35.8245C0.0208501 36.2198 4.60712e-05 36.6254 4.60712e-05 41.608C4.60712e-05 47.662 -0.0207579 47.4643 0.821804 48.1821C3.51592 50.4809 11.4527 50.5017 14.1364 48.2029C14.9997 47.4539 14.9789 47.6724 14.9789 41.608C14.9789 35.5436 14.9997 35.7621 14.1364 35.0131C12.5449 33.6505 8.66491 32.9743 5.18024 33.4424ZM9.41386 35.0651C11.0886 35.2732 12.9609 35.9389 13.221 36.4278C13.4498 36.8647 12.7321 37.364 11.2342 37.7905C8.44647 38.6018 4.36889 38.3522 2.3613 37.26C1.48753 36.7919 1.48753 36.4382 2.3613 35.9597C2.99582 35.6268 4.49371 35.19 5.4611 35.0651C6.5221 34.9403 8.34245 34.9299 9.41386 35.0651ZM2.8606 39.2259C4.20246 39.6836 5.14904 39.8501 6.91738 39.9125C8.18642 39.9541 8.86255 39.9333 9.75712 39.798C10.7453 39.6524 12.3888 39.1947 13.1378 38.8619C13.3042 38.7786 13.3146 38.8827 13.3146 40.2453C13.3146 41.8888 13.3042 41.9201 12.4929 42.3257C10.0796 43.5636 4.89939 43.5636 2.48612 42.3257C1.67477 41.9201 1.66437 41.8888 1.66437 40.2453C1.66437 38.8827 1.67477 38.7786 1.8516 38.8619C1.94522 38.9035 2.40291 39.0699 2.8606 39.2259ZM2.8606 44.2189C4.20246 44.6766 5.14904 44.843 6.91738 44.9054C8.18642 44.947 8.86255 44.9262 9.75712 44.791C10.7453 44.6454 12.3888 44.1877 13.1378 43.8548C13.3042 43.7716 13.3146 43.8756 13.3146 45.2383C13.3146 46.8818 13.3042 46.913 12.4929 47.3187C10.0796 48.5565 4.89939 48.5565 2.48612 47.3187C1.67477 46.913 1.66437 46.8818 1.66437 45.2383C1.66437 43.8756 1.67477 43.7716 1.8516 43.8548C1.94522 43.8964 2.40291 44.0629 2.8606 44.2189Z" fill="white"/>
</svg>
