<svg width="49" height="57" viewBox="0 0 49 57" fill="none" xmlns="http://www.w3.org/2000/svg">
<path d="M12.1058 3.97385C3.85272 6.80716 0.537391 7.99456 0.349287 8.19442C0.102401 8.45306 0.0906449 8.54712 0.0318625 11.545C-0.109215 19.0339 0.219966 25.3706 0.984137 29.8498C2.23032 37.1036 5.00485 42.6174 9.89555 47.4846C12.4467 50.024 15.1037 52.0343 18.1956 53.7625C20.1472 54.8559 23.6741 56.443 24.1326 56.443C24.5676 56.443 27.2011 55.2909 29.3643 54.1387C34.0433 51.6699 38.405 48.0371 41.2501 44.2398C44.73 39.6077 46.611 34.8346 47.5163 28.3215C48.1041 24.1127 48.3862 17.7759 48.2452 11.7801L48.1746 8.45306L47.8807 8.17091C47.6691 7.95929 46.4582 7.48903 43.5896 6.51324C41.3911 5.76083 36.2065 3.9856 32.0565 2.56307C26.8366 0.787842 24.3795 -0.0116005 24.0621 0.000156403C23.7917 0.0119133 18.7717 1.68133 12.1058 3.97385ZM35.0191 6.12528L45.7293 9.7933L45.8116 10.8514C45.9174 12.4268 45.8939 17.6937 45.7646 20.621C45.4824 26.6521 44.8005 31.2254 43.6484 34.6347C42.2141 38.9141 39.7217 42.8525 36.4652 46.015C33.385 48.9894 30.246 51.1291 25.9902 53.1042L24.1444 53.9741L23.1686 53.5391C19.9238 52.0931 16.5615 50.0827 14.2572 48.2252C11.7883 46.2384 9.37826 43.6167 7.76762 41.1361C3.74691 34.9757 2.38316 28.1569 2.38316 14.1902C2.38316 10.8279 2.41843 9.84032 2.53599 9.80506C2.60653 9.78154 7.43844 8.11213 13.2579 6.11352C19.0774 4.11492 23.9445 2.46902 24.0739 2.46902C24.2032 2.45726 29.1291 4.10316 35.0191 6.12528Z" fill="white"/>
<path d="M15.2095 9.17012C10.5304 10.7808 6.61553 12.168 6.52148 12.2503C6.11001 12.5913 6.02771 13.1085 6.02771 15.354C6.02771 20.1859 6.36865 25.2412 6.9212 28.6741C7.43849 31.9189 7.96753 33.7059 9.15493 36.1747C11.3064 40.701 14.751 44.416 19.5477 47.4139C21.3464 48.5426 23.6272 49.6594 24.1327 49.6594C25.0027 49.6594 28.7295 47.5903 31.1866 45.7445C32.9148 44.4513 35.8186 41.5592 36.8297 40.1132C38.3933 37.8912 39.6277 35.4576 40.3566 33.1886C41.5323 29.4971 42.2259 23.0663 42.2377 15.7067C42.2377 13.0733 42.1671 12.5913 41.7321 12.2386C41.4265 11.9799 24.4971 6.21925 24.0857 6.23101C23.8858 6.23101 19.8886 7.55949 15.2095 9.17012ZM32.0565 11.4039L39.7923 14.0373L39.7335 18.2109C39.6277 24.2067 39.2398 27.9335 38.358 31.3428C37.3822 35.0932 35.0427 39.0316 32.1741 41.7238C30.2225 43.5461 27.7066 45.3448 25.3906 46.544L24.1444 47.1906L22.8865 46.544C18.7482 44.4278 15.0802 41.2653 12.8112 37.8559C11.2593 35.5046 10.213 32.9887 9.62519 30.2377C8.9198 26.9106 8.62589 23.5718 8.53184 18.1521L8.47306 14.0373L16.2676 11.3686C20.5587 9.89902 24.1327 8.71162 24.1915 8.73513C24.262 8.74689 27.7889 9.94605 32.0565 11.4039Z" fill="white"/>
<path d="M25.6374 26.5228L21.1935 30.955L19.7004 29.4854C18.7716 28.5684 18.0662 27.9688 17.8664 27.9218C17.3491 27.8042 16.7025 28.1687 16.5379 28.6742C16.3028 29.3913 16.4791 29.6617 18.6423 31.8132C20.6644 33.8353 20.6762 33.847 21.1935 33.847H21.7107L26.6955 28.8741C30.1989 25.3824 31.692 23.807 31.7508 23.5601C31.9741 22.7254 31.4804 22.0906 30.6104 22.0906H30.0814L25.6374 26.5228Z" fill="white"/>
</svg>
