<svg width="217" height="40" viewBox="0 0 217 40" fill="none" xmlns="http://www.w3.org/2000/svg">
<g clip-path="url(#clip0_99_182)">
<path d="M43.7963 11.1672C35.9132 11.1672 29.7537 17.3423 29.7537 25.609C29.7537 33.8757 35.7576 39.998 43.7963 39.998C51.835 39.998 57.9434 33.77 57.9434 25.5562C57.9434 17.3952 51.9394 11.1672 43.7963 11.1672ZM43.8495 34.0404C39.3604 34.0404 36.0708 30.4426 36.0708 25.6111C36.0708 20.7246 39.3072 17.1289 43.7963 17.1289C48.3387 17.1289 51.6262 20.7795 51.6262 25.6111C51.6262 30.4426 48.3387 34.0404 43.8495 34.0404ZM59.665 17.4501H63.5809V39.4634H69.8448V11.7038H59.665V17.4501ZM13.9895 17.1269C17.279 17.1269 19.889 19.2205 20.8798 22.3345H27.5101C26.3085 15.6776 20.9842 11.1672 14.0426 11.1672C6.15953 11.1672 0 17.3423 0 25.6111C0 33.8798 6.00392 40 14.0426 40C20.8286 40 26.2573 35.4896 27.4589 28.7779H20.8798C19.9402 31.8919 17.3302 34.0404 14.0407 34.0404C9.49833 34.0404 6.31515 30.4426 6.31515 25.6111C6.31712 20.7246 9.44908 17.1269 13.9895 17.1269ZM178.684 22.926L174.09 22.2288C171.898 21.9076 170.332 21.1555 170.332 19.3831C170.332 17.4501 172.368 16.4846 175.134 16.4846C178.162 16.4846 180.094 17.8261 180.512 20.0274H186.567C185.887 14.4438 181.711 11.1693 175.292 11.1693C168.661 11.1693 164.277 14.6593 164.277 19.5986C164.277 24.3224 167.149 27.0624 172.942 27.9201L177.535 28.6173C179.781 28.9385 181.034 29.8531 181.034 31.5707C181.034 33.772 178.841 34.6847 175.814 34.6847C172.107 34.6847 170.019 33.1277 169.705 30.7658H163.546C164.121 36.1888 168.244 40 175.76 40C182.6 40 187.14 36.7783 187.14 31.2475C187.14 26.3082 183.852 23.7309 178.684 22.926ZM66.7129 0.268306C64.4161 0.268306 62.6925 1.98587 62.6925 4.34778C62.6925 6.70969 64.4141 8.42726 66.7129 8.42726C69.0096 8.42726 70.7332 6.70969 70.7332 4.34778C70.7332 1.98587 69.0096 0.268306 66.7129 0.268306ZM158.639 21.2084C158.639 15.1959 155.089 11.1693 147.573 11.1693C140.474 11.1693 136.506 14.8747 135.723 20.5661H141.935C142.248 18.3648 143.919 16.5395 147.468 16.5395C150.654 16.5395 152.219 17.9887 152.219 19.7612C152.219 22.0702 149.348 22.6597 145.798 23.0357C140.996 23.5723 135.045 25.2899 135.045 31.7333C135.045 36.7275 138.648 39.9472 144.39 39.9472C148.879 39.9472 151.698 38.0141 153.108 34.953C153.317 37.6909 155.3 39.4634 158.068 39.4634H161.722V33.7192H158.641V21.2084H158.639ZM152.48 28.1884C152.48 31.8939 149.348 34.6318 145.536 34.6318C143.186 34.6318 141.202 33.6115 141.202 31.465C141.202 28.7271 144.388 27.975 147.311 27.6538C150.13 27.3855 151.696 26.7412 152.48 25.5054V28.1884ZM119.227 11.1672C115.729 11.1672 112.806 12.6714 110.718 15.1939V0H104.454V39.4634H110.614V35.8128C112.702 38.443 115.678 40 119.227 40C126.744 40 132.435 33.8798 132.435 25.6111C132.435 17.3423 126.64 11.1672 119.227 11.1672ZM118.288 34.0404C113.799 34.0404 110.509 30.4426 110.509 25.6111C110.509 20.7795 113.85 17.1289 118.339 17.1289C122.881 17.1289 126.065 20.7267 126.065 25.6111C126.065 30.4426 122.777 34.0404 118.288 34.0404ZM89.4718 11.1672C85.4003 11.1672 82.7371 12.8848 81.1711 15.3016V11.7038H74.9584V39.4614H81.2223V24.3752C81.2223 20.1331 83.8323 17.1269 87.6951 17.1269C91.2978 17.1269 93.5414 19.7571 93.5414 23.5703V39.4634H99.8053V23.0886C99.8073 16.1065 96.3109 11.1672 89.4718 11.1672ZM217 24.6984C217 16.7529 211.362 11.1693 203.793 11.1693C195.754 11.1693 189.854 17.3972 189.854 25.6111C189.854 34.2558 196.171 40 203.897 40C210.423 40 215.538 36.0262 216.842 30.3898H210.316C209.377 32.8594 207.08 34.2558 203.999 34.2558C199.979 34.2558 196.951 31.6784 196.274 27.168H216.998V24.6984H217ZM196.64 22.5499C197.633 18.6839 200.452 16.8057 203.688 16.8057C207.238 16.8057 209.952 18.8993 210.578 22.5499H196.64Z" fill="#989898"/>
</g>
<defs>
<clipPath id="clip0_99_182">
<rect width="217" height="40" fill="white"/>
</clipPath>
</defs>
</svg>
